<svg xmlns="http://www.w3.org/2000/svg" width="12.572" height="16.763" viewBox="0 0 12.572 16.763">
  <path id="Icon_awesome-award" data-name="Icon awesome-award" d="M3.18,11.872c-.285-.285-.136-.2-.822-.388a2.362,2.362,0,0,1-.833-.436L.039,14.69a.524.524,0,0,0,.505.721l1.725-.066L3.456,16.6a.524.524,0,0,0,.865-.162l1.7-4.178a2.35,2.35,0,0,1-2.846-.386Zm9.353,2.818-1.485-3.642a2.357,2.357,0,0,1-.833.436c-.69.185-.539.1-.822.388a2.35,2.35,0,0,1-2.846.386l1.7,4.178a.524.524,0,0,0,.865.162L10.3,15.346l1.725.066a.524.524,0,0,0,.505-.721ZM8.611,11.131c.5-.509.558-.465,1.27-.659a1.331,1.331,0,0,0,.932-.949,2.1,2.1,0,0,1,.85-1.5A1.358,1.358,0,0,0,12,6.73,2.129,2.129,0,0,1,12,5a1.358,1.358,0,0,0-.341-1.3,2.1,2.1,0,0,1-.85-1.5,1.331,1.331,0,0,0-.932-.949A2.052,2.052,0,0,1,8.409.393,1.3,1.3,0,0,0,7.136.045a2.026,2.026,0,0,1-1.7,0A1.3,1.3,0,0,0,4.163.393a2.051,2.051,0,0,1-1.471.865,1.331,1.331,0,0,0-.932.949A2.1,2.1,0,0,1,.91,3.7,1.357,1.357,0,0,0,.569,5a2.128,2.128,0,0,1,0,1.729,1.359,1.359,0,0,0,.341,1.3,2.1,2.1,0,0,1,.85,1.5,1.331,1.331,0,0,0,.932.949c.733.2.787.168,1.27.659a1.3,1.3,0,0,0,1.629.191,1.3,1.3,0,0,1,1.392,0A1.3,1.3,0,0,0,8.611,11.131ZM3.2,5.761A3.089,3.089,0,1,1,6.286,8.9,3.117,3.117,0,0,1,3.2,5.761Z" transform="translate(0 0.001)" fill="#fff"/>
</svg>
