<svg xmlns="http://www.w3.org/2000/svg" width="19.666" height="13.111" viewBox="0 0 19.666 13.111">
  <path id="Icon_awesome-ticket-alt" data-name="Icon awesome-ticket-alt" d="M4.37,7.778H15.3v6.555H4.37Zm13.657,3.278a1.639,1.639,0,0,0,1.639,1.639v3.278a1.639,1.639,0,0,1-1.639,1.639H1.639A1.639,1.639,0,0,1,0,15.972V12.694a1.639,1.639,0,0,0,1.639-1.639A1.639,1.639,0,0,0,0,9.417V6.139A1.639,1.639,0,0,1,1.639,4.5H18.027a1.639,1.639,0,0,1,1.639,1.639V9.417A1.639,1.639,0,0,0,18.027,11.055ZM16.388,7.5a.819.819,0,0,0-.819-.819H4.1a.819.819,0,0,0-.819.819v7.1a.819.819,0,0,0,.819.819H15.569a.819.819,0,0,0,.819-.819Z" transform="translate(0 -4.5)" fill="#fff"/>
</svg>
