<svg xmlns="http://www.w3.org/2000/svg" width="30.447" height="24.729" viewBox="0 0 30.447 24.729">
  <path id="Icon_awesome-twitter" data-name="Icon awesome-twitter" d="M27.317,9.544c.019.27.019.541.019.811,0,8.249-6.279,17.754-17.754,17.754A17.634,17.634,0,0,1,0,25.308a12.909,12.909,0,0,0,1.507.077,12.5,12.5,0,0,0,7.747-2.666,6.251,6.251,0,0,1-5.834-4.328,7.869,7.869,0,0,0,1.179.1,6.6,6.6,0,0,0,1.642-.212,6.241,6.241,0,0,1-5-6.124v-.077a6.284,6.284,0,0,0,2.821.792A6.249,6.249,0,0,1,2.125,4.521a17.737,17.737,0,0,0,12.867,6.53,7.044,7.044,0,0,1-.155-1.43,6.246,6.246,0,0,1,10.8-4.27A12.286,12.286,0,0,0,29.6,3.844a6.223,6.223,0,0,1-2.743,3.439,12.51,12.51,0,0,0,3.593-.966,13.414,13.414,0,0,1-3.13,3.226Z" transform="translate(0 -3.381)" fill="#16d6b0"/>
</svg>
