<svg xmlns="http://www.w3.org/2000/svg" width="438" height="273" viewBox="0 0 438 273"><defs><style>.a,.e,.f{fill:#fff;}.b{fill:#585858;}.b,.e,.f{font-size:18px;font-family:Arial-BoldMT, Arial;font-weight:700;}.c,.d,.j{fill:none;}.c{stroke:#16d6b0;}.c,.d{stroke-width:3px;}.d{stroke:#a2a2a2;}.f{opacity:0.5;}.g{fill:#ff4d4d;}.h{fill:#16d6b0;}.i{stroke:none;}</style></defs><g transform="translate(-782 -1506)"><g transform="translate(387 -281)"><circle class="a" cx="23" cy="23" r="23" transform="translate(447 1787)"/><circle class="a" cx="23" cy="23" r="23" transform="translate(583 1787)"/><circle class="a" cx="23" cy="23" r="23" transform="translate(719 1787)"/><circle class="a" cx="23" cy="23" r="23" transform="translate(515 1787)"/><circle class="a" cx="23" cy="23" r="23" transform="translate(651 1787)"/><circle class="a" cx="23" cy="23" r="23" transform="translate(787 1787)"/><text class="b" transform="translate(470 1817)"><tspan x="-5.005" y="0">9</tspan></text><text class="b" transform="translate(606 1817)"><tspan x="-5.005" y="0">3</tspan></text><text class="b" transform="translate(674 1817)"><tspan x="-5.005" y="0">6</tspan></text><text class="b" transform="translate(742 1817)"><tspan x="-5.005" y="0">6</tspan></text><text class="b" transform="translate(810 1817)"><tspan x="-5.005" y="0">2</tspan></text><text class="b" transform="translate(538 1817)"><tspan x="-5.005" y="0">1</tspan></text></g><g class="c" transform="translate(839 1626)"><rect class="i" width="173" height="40" rx="20"/><rect class="j" x="1.5" y="1.5" width="170" height="37" rx="18.5"/></g><g class="d" transform="translate(839 1739)"><rect class="i" width="377" height="40" rx="20"/><rect class="j" x="1.5" y="1.5" width="374" height="37" rx="18.5"/></g><text class="e" transform="translate(789 1652)"><tspan x="-6.5" y="0">A</tspan></text><text class="e" transform="translate(789 1766)"><tspan x="-6.5" y="0">B</tspan></text><text class="e" transform="translate(857 1652)"><tspan x="-5.005" y="0">9</tspan></text><text class="f" transform="translate(857 1766)"><tspan x="-5.005" y="0">0</tspan></text><text class="e" transform="translate(993 1652)"><tspan x="-5.005" y="0">3</tspan></text><text class="f" transform="translate(993 1766)"><tspan x="-5.005" y="0">3</tspan></text><text class="f" transform="translate(1061 1652)"><tspan x="-5.005" y="0">9</tspan></text><text class="f" transform="translate(1061 1766)"><tspan x="-5.005" y="0">9</tspan></text><text class="f" transform="translate(1129 1652)"><tspan x="-5.005" y="0">6</tspan></text><text class="f" transform="translate(1129 1766)"><tspan x="-5.005" y="0">6</tspan></text><text class="f" transform="translate(1197 1652)"><tspan x="-5.005" y="0">2</tspan></text><text class="f" transform="translate(1197 1766)"><tspan x="-5.005" y="0">2</tspan></text><text class="e" transform="translate(925 1652)"><tspan x="-5.005" y="0">1</tspan></text><text class="f" transform="translate(925 1766)"><tspan x="-5.005" y="0">1</tspan></text><path class="g" d="M7.433,5.871h0L5.945,4.382,7.433,2.893h0a.154.154,0,0,0,0-.217l-.7-.7a.154.154,0,0,0-.217,0h0L5.025,3.462,3.536,1.973h0a.154.154,0,0,0-.217,0l-.7.7a.154.154,0,0,0,0,.217h0L4.1,4.382,2.616,5.871h0a.154.154,0,0,0,0,.217l.7.7a.154.154,0,0,0,.217,0h0L5.025,5.3,6.513,6.791h0a.154.154,0,0,0,.217,0l.7-.7a.154.154,0,0,0,0-.217Z" transform="translate(1054.387 1610.498)"/><path class="g" d="M7.433,5.871h0L5.945,4.382,7.433,2.893h0a.154.154,0,0,0,0-.217l-.7-.7a.154.154,0,0,0-.217,0h0L5.025,3.462,3.536,1.973h0a.154.154,0,0,0-.217,0l-.7.7a.154.154,0,0,0,0,.217h0L4.1,4.382,2.616,5.871h0a.154.154,0,0,0,0,.217l.7.7a.154.154,0,0,0,.217,0h0L5.025,5.3,6.513,6.791h0a.154.154,0,0,0,.217,0l.7-.7a.154.154,0,0,0,0-.217Z" transform="translate(852.018 1720.498)"/><path class="h" d="M7.354,12.667,5.664,10.977,5.1,11.54l2.254,2.254,4.831-4.831L11.622,8.4Z" transform="translate(848.357 1603.782)"/><path class="h" d="M7.354,12.667,5.664,10.977,5.1,11.54l2.254,2.254,4.831-4.831L11.622,8.4Z" transform="translate(1050.769 1713.782)"/><path class="h" d="M7.354,12.667,5.664,10.977,5.1,11.54l2.254,2.254,4.831-4.831L11.622,8.4Z" transform="translate(916.857 1603.782)"/><path class="h" d="M7.354,12.667,5.664,10.977,5.1,11.54l2.254,2.254,4.831-4.831L11.622,8.4Z" transform="translate(916.857 1713.782)"/><path class="h" d="M7.354,12.667,5.664,10.977,5.1,11.54l2.254,2.254,4.831-4.831L11.622,8.4Z" transform="translate(984.357 1603.782)"/><path class="h" d="M7.354,12.667,5.664,10.977,5.1,11.54l2.254,2.254,4.831-4.831L11.622,8.4Z" transform="translate(984.357 1713.782)"/><path class="h" d="M7.354,12.667,5.664,10.977,5.1,11.54l2.254,2.254,4.831-4.831L11.622,8.4Z" transform="translate(916.857 1603.782)"/><path class="h" d="M7.354,12.667,5.664,10.977,5.1,11.54l2.254,2.254,4.831-4.831L11.622,8.4Z" transform="translate(916.857 1713.782)"/><path class="h" d="M7.354,12.667,5.664,10.977,5.1,11.54l2.254,2.254,4.831-4.831L11.622,8.4Z" transform="translate(984.357 1603.782)"/><path class="h" d="M7.354,12.667,5.664,10.977,5.1,11.54l2.254,2.254,4.831-4.831L11.622,8.4Z" transform="translate(984.357 1713.782)"/><path class="h" d="M7.354,12.667,5.664,10.977,5.1,11.54l2.254,2.254,4.831-4.831L11.622,8.4Z" transform="translate(916.857 1603.782)"/><path class="h" d="M7.354,12.667,5.664,10.977,5.1,11.54l2.254,2.254,4.831-4.831L11.622,8.4Z" transform="translate(916.857 1713.782)"/><path class="h" d="M7.354,12.667,5.664,10.977,5.1,11.54l2.254,2.254,4.831-4.831L11.622,8.4Z" transform="translate(984.357 1603.782)"/><path class="h" d="M7.354,12.667,5.664,10.977,5.1,11.54l2.254,2.254,4.831-4.831L11.622,8.4Z" transform="translate(984.357 1713.782)"/><path class="h" d="M7.354,12.667,5.664,10.977,5.1,11.54l2.254,2.254,4.831-4.831L11.622,8.4Z" transform="translate(916.857 1603.782)"/><path class="h" d="M7.354,12.667,5.664,10.977,5.1,11.54l2.254,2.254,4.831-4.831L11.622,8.4Z" transform="translate(916.857 1713.782)"/><path class="h" d="M7.354,12.667,5.664,10.977,5.1,11.54l2.254,2.254,4.831-4.831L11.622,8.4Z" transform="translate(1120.314 1603.782)"/><path class="h" d="M7.354,12.667,5.664,10.977,5.1,11.54l2.254,2.254,4.831-4.831L11.622,8.4Z" transform="translate(1120.314 1713.782)"/><path class="h" d="M7.354,12.667,5.664,10.977,5.1,11.54l2.254,2.254,4.831-4.831L11.622,8.4Z" transform="translate(984.357 1603.782)"/><path class="h" d="M7.354,12.667,5.664,10.977,5.1,11.54l2.254,2.254,4.831-4.831L11.622,8.4Z" transform="translate(984.357 1713.782)"/><path class="h" d="M7.354,12.667,5.664,10.977,5.1,11.54l2.254,2.254,4.831-4.831L11.622,8.4Z" transform="translate(1188.814 1603.782)"/><path class="h" d="M7.354,12.667,5.664,10.977,5.1,11.54l2.254,2.254,4.831-4.831L11.622,8.4Z" transform="translate(1188.814 1713.782)"/></g></svg>